<?xml version="1.0" encoding="UTF-8" standalone="no"?>
<!DOCTYPE svg PUBLIC "-//W3C//DTD SVG 1.1//EN"
 "http://www.w3.org/Graphics/SVG/1.1/DTD/svg11.dtd">
<!-- Generated by graphviz version 2.43.0 (0)
 -->
<!-- Title: SEQ_DIAGRAM Pages: 1 -->
<svg width="1098pt" height="262pt"
 viewBox="0.00 0.00 1098.00 262.00" xmlns="http://www.w3.org/2000/svg" xmlns:xlink="http://www.w3.org/1999/xlink">
<g id="graph0" class="graph" transform="scale(1 1) rotate(0) translate(4 258)">
<title>SEQ_DIAGRAM</title>
<polygon fill="white" stroke="transparent" points="-4,4 -4,-258 1094,-258 1094,4 -4,4"/>
<!-- pi -->
<g id="node1" class="node">
<title>pi</title>
<polygon fill="none" stroke="black" points="144,-254 0,-254 0,-204 144,-204 144,-254"/>
<text text-anchor="middle" x="72" y="-225.3" font-family="Times,serif" font-size="14.00">Raspberry Pi</text>
</g>
<!-- a1 -->
<g id="node5" class="node">
<title>a1</title>
</g>
<!-- pi&#45;&gt;a1 -->
<g id="edge1" class="edge">
<title>pi&#45;&gt;a1</title>
<path fill="none" stroke="black" stroke-dasharray="5,2" d="M72,-203.89C72,-187.37 72,-168.24 72,-167.06"/>
</g>
<!-- homeassistant -->
<g id="node2" class="node">
<title>homeassistant</title>
<polygon fill="none" stroke="black" points="360,-254 216,-254 216,-204 360,-204 360,-254"/>
<text text-anchor="middle" x="288" y="-225.3" font-family="Times,serif" font-size="14.00">Home Assistant</text>
</g>
<!-- b1 -->
<g id="node10" class="node">
<title>b1</title>
</g>
<!-- homeassistant&#45;&gt;b1 -->
<g id="edge6" class="edge">
<title>homeassistant&#45;&gt;b1</title>
<path fill="none" stroke="black" stroke-dasharray="5,2" d="M288,-203.89C288,-187.37 288,-168.24 288,-167.06"/>
</g>
<!-- cec -->
<g id="node3" class="node">
<title>cec</title>
<polygon fill="none" stroke="black" points="680,-254 500,-254 500,-204 680,-204 680,-254"/>
<text text-anchor="middle" x="590" y="-225.3" font-family="Times,serif" font-size="14.00">cec proxy (ESP device)</text>
</g>
<!-- c1 -->
<g id="node15" class="node">
<title>c1</title>
</g>
<!-- cec&#45;&gt;c1 -->
<g id="edge11" class="edge">
<title>cec&#45;&gt;c1</title>
<path fill="none" stroke="black" stroke-dasharray="5,2" d="M590,-203.89C590,-187.37 590,-168.24 590,-167.06"/>
</g>
<!-- tv -->
<g id="node4" class="node">
<title>tv</title>
<polygon fill="none" stroke="black" points="1028,-254 884,-254 884,-204 1028,-204 1028,-254"/>
<text text-anchor="middle" x="956" y="-225.3" font-family="Times,serif" font-size="14.00">TV</text>
</g>
<!-- d1 -->
<g id="node20" class="node">
<title>d1</title>
</g>
<!-- tv&#45;&gt;d1 -->
<g id="edge16" class="edge">
<title>tv&#45;&gt;d1</title>
<path fill="none" stroke="black" stroke-dasharray="5,2" d="M956,-203.89C956,-187.37 956,-168.24 956,-167.06"/>
</g>
<!-- a2 -->
<g id="node6" class="node">
<title>a2</title>
</g>
<!-- a1&#45;&gt;a2 -->
<g id="edge2" class="edge">
<title>a1&#45;&gt;a2</title>
<path fill="none" stroke="black" stroke-dasharray="5,2" d="M72,-165.89C72,-163.79 72,-131.14 72,-129.1"/>
</g>
<!-- a3 -->
<g id="node7" class="node">
<title>a3</title>
</g>
<!-- a2&#45;&gt;a3 -->
<g id="edge3" class="edge">
<title>a2&#45;&gt;a3</title>
<path fill="none" stroke="black" stroke-dasharray="5,2" d="M72,-127.85C72,-124.96 72,-79.95 72,-77.14"/>
</g>
<!-- a4 -->
<g id="node8" class="node">
<title>a4</title>
</g>
<!-- a3&#45;&gt;a4 -->
<g id="edge4" class="edge">
<title>a3&#45;&gt;a4</title>
<path fill="none" stroke="black" stroke-dasharray="5,2" d="M72,-75.89C72,-73.79 72,-41.14 72,-39.1"/>
</g>
<!-- a5 -->
<g id="node9" class="node">
<title>a5</title>
</g>
<!-- a4&#45;&gt;a5 -->
<g id="edge5" class="edge">
<title>a4&#45;&gt;a5</title>
<path fill="none" stroke="black" stroke-dasharray="5,2" d="M72,-37.89C72,-35.79 72,-3.14 72,-1.1"/>
</g>
<!-- b4 -->
<g id="node13" class="node">
<title>b4</title>
</g>
<!-- a4&#45;&gt;b4 -->
<g id="edge23" class="edge">
<title>a4&#45;&gt;b4</title>
<path fill="none" stroke="black" d="M72.84,-38.5C144.28,-38.5 215.72,-38.5 287.16,-38.5"/>
</g>
<!-- b2 -->
<g id="node11" class="node">
<title>b2</title>
</g>
<!-- b1&#45;&gt;b2 -->
<g id="edge7" class="edge">
<title>b1&#45;&gt;b2</title>
<path fill="none" stroke="black" stroke-dasharray="5,2" d="M288,-165.89C288,-163.79 288,-131.14 288,-129.1"/>
</g>
<!-- b1&#45;&gt;c1 -->
<g id="edge21" class="edge">
<title>b1&#45;&gt;c1</title>
<path fill="none" stroke="black" d="M288.87,-166.5C304.48,-166.5 526.67,-166.5 579.01,-166.5"/>
<polygon fill="black" stroke="black" points="579.19,-170 589.19,-166.5 579.19,-163 579.19,-170"/>
<text text-anchor="middle" x="439" y="-188.3" font-family="Times,serif" font-size="14.00">send message via WIFI to proxy</text>
<text text-anchor="middle" x="439" y="-173.3" font-family="Times,serif" font-size="14.00">Ex: 1f:82:10:00</text>
</g>
<!-- b3 -->
<g id="node12" class="node">
<title>b3</title>
</g>
<!-- b2&#45;&gt;b3 -->
<g id="edge8" class="edge">
<title>b2&#45;&gt;b3</title>
<path fill="none" stroke="black" stroke-dasharray="5,2" d="M288,-127.85C288,-124.96 288,-79.95 288,-77.14"/>
</g>
<!-- b3&#45;&gt;b4 -->
<g id="edge9" class="edge">
<title>b3&#45;&gt;b4</title>
<path fill="none" stroke="black" stroke-dasharray="5,2" d="M288,-75.89C288,-73.79 288,-41.14 288,-39.1"/>
</g>
<!-- b5 -->
<g id="node14" class="node">
<title>b5</title>
</g>
<!-- b4&#45;&gt;b5 -->
<g id="edge10" class="edge">
<title>b4&#45;&gt;b5</title>
<path fill="none" stroke="black" stroke-dasharray="5,2" d="M288,-37.89C288,-35.79 288,-3.14 288,-1.1"/>
</g>
<!-- c4 -->
<g id="node18" class="node">
<title>c4</title>
</g>
<!-- b4&#45;&gt;c4 -->
<g id="edge24" class="edge">
<title>b4&#45;&gt;c4</title>
<path fill="none" stroke="black" d="M288.59,-38.5C388.86,-38.5 489.14,-38.5 589.41,-38.5"/>
</g>
<!-- c2 -->
<g id="node16" class="node">
<title>c2</title>
</g>
<!-- c1&#45;&gt;c2 -->
<g id="edge12" class="edge">
<title>c1&#45;&gt;c2</title>
<path fill="none" stroke="black" stroke-width="5" d="M590,-165.89C590,-163.79 590,-131.14 590,-129.1"/>
</g>
<!-- c3 -->
<g id="node17" class="node">
<title>c3</title>
</g>
<!-- c2&#45;&gt;c3 -->
<g id="edge13" class="edge">
<title>c2&#45;&gt;c3</title>
<path fill="none" stroke="black" stroke-dasharray="5,2" d="M590,-127.85C590,-124.96 590,-79.95 590,-77.14"/>
</g>
<!-- d2 -->
<g id="node21" class="node">
<title>d2</title>
</g>
<!-- c2&#45;&gt;d2 -->
<g id="edge22" class="edge">
<title>c2&#45;&gt;d2</title>
<path fill="none" stroke="black" d="M590.59,-128.5C605.23,-128.5 886.08,-128.5 945.15,-128.5"/>
<polygon fill="black" stroke="black" points="945.43,-132 955.43,-128.5 945.43,-125 945.43,-132"/>
<text text-anchor="middle" x="773" y="-135.3" font-family="Times,serif" font-size="14.00">HDMI pin13: relay message to TV</text>
</g>
<!-- c3&#45;&gt;c4 -->
<g id="edge14" class="edge">
<title>c3&#45;&gt;c4</title>
<path fill="none" stroke="black" stroke-dasharray="5,2" d="M590,-75.89C590,-73.79 590,-41.14 590,-39.1"/>
</g>
<!-- c5 -->
<g id="node19" class="node">
<title>c5</title>
</g>
<!-- c4&#45;&gt;c5 -->
<g id="edge15" class="edge">
<title>c4&#45;&gt;c5</title>
<path fill="none" stroke="black" stroke-dasharray="5,2" d="M590,-37.89C590,-35.79 590,-3.14 590,-1.1"/>
</g>
<!-- d4 -->
<g id="node23" class="node">
<title>d4</title>
</g>
<!-- c4&#45;&gt;d4 -->
<g id="edge25" class="edge">
<title>c4&#45;&gt;d4</title>
<path fill="none" stroke="black" d="M590.59,-38.5C605.23,-38.5 886.08,-38.5 945.15,-38.5"/>
<polygon fill="black" stroke="black" points="945.43,-42 955.43,-38.5 945.43,-35 945.43,-42"/>
<text text-anchor="middle" x="773" y="-45.3" font-family="Times,serif" font-size="14.00">rest of the HDMI pins (audio, video, etc.)</text>
</g>
<!-- d1&#45;&gt;d2 -->
<g id="edge17" class="edge">
<title>d1&#45;&gt;d2</title>
<path fill="none" stroke="black" stroke-dasharray="5,2" d="M956,-165.89C956,-163.79 956,-131.14 956,-129.1"/>
</g>
<!-- d3 -->
<g id="node22" class="node">
<title>d3</title>
</g>
<!-- d2&#45;&gt;d3 -->
<g id="edge18" class="edge">
<title>d2&#45;&gt;d3</title>
<path fill="none" stroke="black" stroke-width="5" d="M956,-127.85C956,-124.96 956,-79.95 956,-77.14"/>
<text text-anchor="middle" x="1023" y="-98.8" font-family="Times,serif" font-size="14.00">changes to HDMI1</text>
</g>
<!-- d3&#45;&gt;d4 -->
<g id="edge19" class="edge">
<title>d3&#45;&gt;d4</title>
<path fill="none" stroke="black" stroke-dasharray="5,2" d="M956,-75.89C956,-73.79 956,-41.14 956,-39.1"/>
</g>
<!-- d5 -->
<g id="node24" class="node">
<title>d5</title>
</g>
<!-- d4&#45;&gt;d5 -->
<g id="edge20" class="edge">
<title>d4&#45;&gt;d5</title>
<path fill="none" stroke="black" stroke-dasharray="5,2" d="M956,-37.89C956,-35.79 956,-3.14 956,-1.1"/>
</g>
</g>
</svg>
