<?xml version="1.0" encoding="UTF-8" standalone="no"?>
<!DOCTYPE svg PUBLIC "-//W3C//DTD SVG 1.1//EN"
 "http://www.w3.org/Graphics/SVG/1.1/DTD/svg11.dtd">
<!-- Generated by graphviz version 2.43.0 (0)
 -->
<!-- Title: SEQ_DIAGRAM Pages: 1 -->
<svg width="856pt" height="248pt"
 viewBox="0.00 0.00 856.00 248.00" xmlns="http://www.w3.org/2000/svg" xmlns:xlink="http://www.w3.org/1999/xlink">
<g id="graph0" class="graph" transform="scale(1 1) rotate(0) translate(4 244)">
<title>SEQ_DIAGRAM</title>
<polygon fill="white" stroke="transparent" points="-4,4 -4,-244 852,-244 852,4 -4,4"/>
<!-- keypad -->
<g id="node1" class="node">
<title>keypad</title>
<polygon fill="none" stroke="black" points="144,-240 0,-240 0,-190 144,-190 144,-240"/>
<text text-anchor="middle" x="72" y="-211.3" font-family="Times,serif" font-size="14.00">Keypad</text>
</g>
<!-- a1 -->
<g id="node4" class="node">
<title>a1</title>
</g>
<!-- keypad&#45;&gt;a1 -->
<g id="edge1" class="edge">
<title>keypad&#45;&gt;a1</title>
<path fill="none" stroke="black" stroke-dasharray="5,2" d="M72,-189.89C72,-173.37 72,-154.24 72,-153.06"/>
</g>
<!-- raspberry_pi -->
<g id="node2" class="node">
<title>raspberry_pi</title>
<polygon fill="none" stroke="black" points="496.5,-240 281.5,-240 281.5,-190 496.5,-190 496.5,-240"/>
<text text-anchor="middle" x="389" y="-211.3" font-family="Times,serif" font-size="14.00">keypad2mqtt (raspberry pi)</text>
</g>
<!-- b1 -->
<g id="node8" class="node">
<title>b1</title>
</g>
<!-- raspberry_pi&#45;&gt;b1 -->
<g id="edge5" class="edge">
<title>raspberry_pi&#45;&gt;b1</title>
<path fill="none" stroke="black" stroke-dasharray="5,2" d="M389,-189.89C389,-173.37 389,-154.24 389,-153.06"/>
</g>
<!-- homeassistant -->
<g id="node3" class="node">
<title>homeassistant</title>
<polygon fill="none" stroke="black" points="848,-240 606,-240 606,-190 848,-190 848,-240"/>
<text text-anchor="middle" x="727" y="-211.3" font-family="Times,serif" font-size="14.00">MQTT Broker (Home Assistant)</text>
</g>
<!-- c1 -->
<g id="node13" class="node">
<title>c1</title>
</g>
<!-- homeassistant&#45;&gt;c1 -->
<g id="edge10" class="edge">
<title>homeassistant&#45;&gt;c1</title>
<path fill="none" stroke="black" stroke-dasharray="5,2" d="M727,-189.89C727,-173.37 727,-154.24 727,-153.06"/>
</g>
<!-- a2 -->
<g id="node5" class="node">
<title>a2</title>
</g>
<!-- a1&#45;&gt;a2 -->
<g id="edge2" class="edge">
<title>a1&#45;&gt;a2</title>
<path fill="none" stroke="black" stroke-dasharray="5,2" d="M72,-151.89C72,-149.79 72,-117.14 72,-115.1"/>
</g>
<!-- a1&#45;&gt;b1 -->
<g id="edge15" class="edge">
<title>a1&#45;&gt;b1</title>
<path fill="none" stroke="black" d="M72.51,-152.5C85.06,-152.5 323.55,-152.5 378,-152.5"/>
<polygon fill="black" stroke="black" points="378.13,-156 388.13,-152.5 378.13,-149 378.13,-156"/>
<text text-anchor="middle" x="230.5" y="-159.3" font-family="Times,serif" font-size="14.00">send keydown event through USB</text>
</g>
<!-- a3 -->
<g id="node6" class="node">
<title>a3</title>
</g>
<!-- a2&#45;&gt;a3 -->
<g id="edge3" class="edge">
<title>a2&#45;&gt;a3</title>
<path fill="none" stroke="black" stroke-dasharray="5,2" d="M72,-113.89C72,-111.79 72,-79.14 72,-77.1"/>
</g>
<!-- a5 -->
<g id="node7" class="node">
<title>a5</title>
</g>
<!-- a3&#45;&gt;a5 -->
<g id="edge4" class="edge">
<title>a3&#45;&gt;a5</title>
<path fill="none" stroke="black" stroke-dasharray="5,2" d="M72,-75.89C72,-73.79 72,-41.14 72,-39.1"/>
</g>
<!-- b2 -->
<g id="node9" class="node">
<title>b2</title>
</g>
<!-- b1&#45;&gt;b2 -->
<g id="edge6" class="edge">
<title>b1&#45;&gt;b2</title>
<path fill="none" stroke="black" stroke-width="5" d="M389,-151.89C389,-149.79 389,-117.14 389,-115.1"/>
</g>
<!-- b3 -->
<g id="node10" class="node">
<title>b3</title>
</g>
<!-- b2&#45;&gt;b3 -->
<g id="edge7" class="edge">
<title>b2&#45;&gt;b3</title>
<path fill="none" stroke="black" stroke-dasharray="5,2" d="M389,-113.89C389,-111.79 389,-79.14 389,-77.1"/>
</g>
<!-- c2 -->
<g id="node14" class="node">
<title>c2</title>
</g>
<!-- b2&#45;&gt;c2 -->
<g id="edge16" class="edge">
<title>b2&#45;&gt;c2</title>
<path fill="none" stroke="black" d="M389.55,-114.5C403.01,-114.5 660.22,-114.5 716.28,-114.5"/>
<polygon fill="black" stroke="black" points="716.48,-118 726.48,-114.5 716.48,-111 716.48,-118"/>
<text text-anchor="middle" x="558" y="-121.3" font-family="Times,serif" font-size="14.00">publish to topic &quot;keypad/F1&quot; (to F16)</text>
</g>
<!-- b4 -->
<g id="node11" class="node">
<title>b4</title>
</g>
<!-- b3&#45;&gt;b4 -->
<g id="edge8" class="edge">
<title>b3&#45;&gt;b4</title>
<path fill="none" stroke="black" stroke-dasharray="5,2" d="M389,-75.89C389,-73.79 389,-41.14 389,-39.1"/>
</g>
<!-- b5 -->
<g id="node12" class="node">
<title>b5</title>
</g>
<!-- b4&#45;&gt;b5 -->
<g id="edge9" class="edge">
<title>b4&#45;&gt;b5</title>
<path fill="none" stroke="black" stroke-dasharray="5,2" d="M389,-37.89C389,-35.79 389,-3.14 389,-1.1"/>
</g>
<!-- c1&#45;&gt;c2 -->
<g id="edge11" class="edge">
<title>c1&#45;&gt;c2</title>
<path fill="none" stroke="black" stroke-dasharray="5,2" d="M727,-151.89C727,-149.79 727,-117.14 727,-115.1"/>
</g>
<!-- c3 -->
<g id="node15" class="node">
<title>c3</title>
</g>
<!-- c2&#45;&gt;c3 -->
<g id="edge12" class="edge">
<title>c2&#45;&gt;c3</title>
<path fill="none" stroke="black" stroke-width="5" d="M727,-113.89C727,-111.79 727,-79.14 727,-77.1"/>
</g>
<!-- c4 -->
<g id="node16" class="node">
<title>c4</title>
</g>
<!-- c3&#45;&gt;c4 -->
<g id="edge13" class="edge">
<title>c3&#45;&gt;c4</title>
<path fill="none" stroke="black" stroke-dasharray="5,2" d="M727,-75.89C727,-73.79 727,-41.14 727,-39.1"/>
</g>
<!-- c5 -->
<g id="node17" class="node">
<title>c5</title>
</g>
<!-- c4&#45;&gt;c5 -->
<g id="edge14" class="edge">
<title>c4&#45;&gt;c5</title>
<path fill="none" stroke="black" stroke-dasharray="5,2" d="M727,-37.89C727,-35.79 727,-3.14 727,-1.1"/>
</g>
</g>
</svg>
