<?xml version="1.0" encoding="UTF-8" standalone="no"?>
<!DOCTYPE svg PUBLIC "-//W3C//DTD SVG 1.1//EN"
 "http://www.w3.org/Graphics/SVG/1.1/DTD/svg11.dtd">
<!-- Generated by graphviz version 2.43.0 (0)
 -->
<!-- Title: SEQ_DIAGRAM Pages: 1 -->
<svg width="1146pt" height="314pt"
 viewBox="0.00 0.00 1146.00 314.00" xmlns="http://www.w3.org/2000/svg" xmlns:xlink="http://www.w3.org/1999/xlink">
<g id="graph0" class="graph" transform="scale(1 1) rotate(0) translate(4 310)">
<title>SEQ_DIAGRAM</title>
<polygon fill="white" stroke="transparent" points="-4,4 -4,-310 1142,-310 1142,4 -4,4"/>
<!-- homeassistant -->
<g id="node1" class="node">
<title>homeassistant</title>
<polygon fill="none" stroke="black" points="144,-306 0,-306 0,-256 144,-256 144,-306"/>
<text text-anchor="middle" x="72" y="-277.3" font-family="Times,serif" font-size="14.00">Home Assistant</text>
</g>
<!-- a1 -->
<g id="node5" class="node">
<title>a1</title>
</g>
<!-- homeassistant&#45;&gt;a1 -->
<g id="edge1" class="edge">
<title>homeassistant&#45;&gt;a1</title>
<path fill="none" stroke="black" stroke-dasharray="5,2" d="M72,-255.89C72,-239.37 72,-220.24 72,-219.06"/>
</g>
<!-- cec -->
<g id="node2" class="node">
<title>cec</title>
<polygon fill="none" stroke="black" points="491,-306 347,-306 347,-256 491,-256 491,-306"/>
<text text-anchor="middle" x="419" y="-277.3" font-family="Times,serif" font-size="14.00">ESP device</text>
</g>
<!-- b1 -->
<g id="node11" class="node">
<title>b1</title>
</g>
<!-- cec&#45;&gt;b1 -->
<g id="edge7" class="edge">
<title>cec&#45;&gt;b1</title>
<path fill="none" stroke="black" stroke-dasharray="5,2" d="M419,-255.89C419,-239.37 419,-220.24 419,-219.06"/>
</g>
<!-- retrotink -->
<g id="node3" class="node">
<title>retrotink</title>
<polygon fill="none" stroke="black" points="758,-306 614,-306 614,-256 758,-256 758,-306"/>
<text text-anchor="middle" x="686" y="-277.3" font-family="Times,serif" font-size="14.00">Retrotink4K</text>
</g>
<!-- c1 -->
<g id="node17" class="node">
<title>c1</title>
</g>
<!-- retrotink&#45;&gt;c1 -->
<g id="edge13" class="edge">
<title>retrotink&#45;&gt;c1</title>
<path fill="none" stroke="black" stroke-dasharray="5,2" d="M686,-255.89C686,-239.37 686,-220.24 686,-219.06"/>
</g>
<!-- hdmi_switch -->
<g id="node4" class="node">
<title>hdmi_switch</title>
<polygon fill="none" stroke="black" points="1051,-306 907,-306 907,-256 1051,-256 1051,-306"/>
<text text-anchor="middle" x="979" y="-277.3" font-family="Times,serif" font-size="14.00">HDMI switch</text>
</g>
<!-- d1 -->
<g id="node23" class="node">
<title>d1</title>
</g>
<!-- hdmi_switch&#45;&gt;d1 -->
<g id="edge19" class="edge">
<title>hdmi_switch&#45;&gt;d1</title>
<path fill="none" stroke="black" stroke-dasharray="5,2" d="M979,-255.89C979,-239.37 979,-220.24 979,-219.06"/>
</g>
<!-- a2 -->
<g id="node6" class="node">
<title>a2</title>
</g>
<!-- a1&#45;&gt;a2 -->
<g id="edge2" class="edge">
<title>a1&#45;&gt;a2</title>
<path fill="none" stroke="black" stroke-dasharray="5,2" d="M72,-217.89C72,-215.79 72,-183.14 72,-181.1"/>
</g>
<!-- a1&#45;&gt;b1 -->
<g id="edge25" class="edge">
<title>a1&#45;&gt;b1</title>
<path fill="none" stroke="black" d="M72.56,-218.5C86.41,-218.5 351.58,-218.5 408.36,-218.5"/>
<polygon fill="black" stroke="black" points="408.46,-222 418.46,-218.5 408.46,-215 408.46,-222"/>
<text text-anchor="middle" x="245.5" y="-240.3" font-family="Times,serif" font-size="14.00">send message via ESPhome to device </text>
<text text-anchor="middle" x="245.5" y="-225.3" font-family="Times,serif" font-size="14.00">Ex: 0xB649 0xF40B</text>
</g>
<!-- a3 -->
<g id="node7" class="node">
<title>a3</title>
</g>
<!-- a2&#45;&gt;a3 -->
<g id="edge3" class="edge">
<title>a2&#45;&gt;a3</title>
<path fill="none" stroke="black" stroke-dasharray="5,2" d="M72,-179.85C72,-176.96 72,-131.95 72,-129.14"/>
</g>
<!-- a4 -->
<g id="node8" class="node">
<title>a4</title>
</g>
<!-- a3&#45;&gt;a4 -->
<g id="edge4" class="edge">
<title>a3&#45;&gt;a4</title>
<path fill="none" stroke="black" stroke-dasharray="5,2" d="M72,-127.89C72,-125.79 72,-93.14 72,-91.1"/>
</g>
<!-- a5 -->
<g id="node9" class="node">
<title>a5</title>
</g>
<!-- a4&#45;&gt;a5 -->
<g id="edge5" class="edge">
<title>a4&#45;&gt;a5</title>
<path fill="none" stroke="black" stroke-dasharray="5,2" d="M72,-89.85C72,-86.96 72,-41.95 72,-39.14"/>
</g>
<!-- a6 -->
<g id="node10" class="node">
<title>a6</title>
</g>
<!-- a5&#45;&gt;a6 -->
<g id="edge6" class="edge">
<title>a5&#45;&gt;a6</title>
<path fill="none" stroke="black" stroke-dasharray="5,2" d="M72,-37.89C72,-35.79 72,-3.14 72,-1.1"/>
</g>
<!-- b2 -->
<g id="node12" class="node">
<title>b2</title>
</g>
<!-- b1&#45;&gt;b2 -->
<g id="edge8" class="edge">
<title>b1&#45;&gt;b2</title>
<path fill="none" stroke="black" stroke-width="5" d="M419,-217.89C419,-215.79 419,-183.14 419,-181.1"/>
</g>
<!-- b3 -->
<g id="node13" class="node">
<title>b3</title>
</g>
<!-- b2&#45;&gt;b3 -->
<g id="edge9" class="edge">
<title>b2&#45;&gt;b3</title>
<path fill="none" stroke="black" stroke-width="5" d="M419,-179.85C419,-176.96 419,-131.95 419,-129.14"/>
</g>
<!-- c2 -->
<g id="node18" class="node">
<title>c2</title>
</g>
<!-- b2&#45;&gt;c2 -->
<g id="edge26" class="edge">
<title>b2&#45;&gt;c2</title>
<path fill="none" stroke="black" d="M419.77,-180.5C433.46,-180.5 626.65,-180.5 675.06,-180.5"/>
<polygon fill="black" stroke="black" points="675.28,-184 685.28,-180.5 675.28,-177 675.28,-184"/>
<text text-anchor="middle" x="552.5" y="-217.3" font-family="Times,serif" font-size="14.00">relay message to Retrotink</text>
<text text-anchor="middle" x="552.5" y="-202.3" font-family="Times,serif" font-size="14.00">through IR on first cable</text>
<text text-anchor="middle" x="552.5" y="-187.3" font-family="Times,serif" font-size="14.00">Ex: 0xB649 0xF40B</text>
</g>
<!-- b4 -->
<g id="node14" class="node">
<title>b4</title>
</g>
<!-- b3&#45;&gt;b4 -->
<g id="edge10" class="edge">
<title>b3&#45;&gt;b4</title>
<path fill="none" stroke="black" stroke-width="5" d="M419,-127.89C419,-125.79 419,-93.14 419,-91.1"/>
</g>
<!-- b5 -->
<g id="node15" class="node">
<title>b5</title>
</g>
<!-- b4&#45;&gt;b5 -->
<g id="edge11" class="edge">
<title>b4&#45;&gt;b5</title>
<path fill="none" stroke="black" stroke-dasharray="5,2" d="M419,-89.85C419,-86.96 419,-41.95 419,-39.14"/>
</g>
<!-- c4 -->
<g id="node20" class="node">
<title>c4</title>
</g>
<!-- b4&#45;&gt;c4 -->
<g id="edge27" class="edge">
<title>b4&#45;&gt;c4</title>
<path fill="none" stroke="black" d="M419.52,-90.5C508.17,-90.5 596.83,-90.5 685.48,-90.5"/>
</g>
<!-- b6 -->
<g id="node16" class="node">
<title>b6</title>
</g>
<!-- b5&#45;&gt;b6 -->
<g id="edge12" class="edge">
<title>b5&#45;&gt;b6</title>
<path fill="none" stroke="black" stroke-dasharray="5,2" d="M419,-37.89C419,-35.79 419,-3.14 419,-1.1"/>
</g>
<!-- c1&#45;&gt;c2 -->
<g id="edge14" class="edge">
<title>c1&#45;&gt;c2</title>
<path fill="none" stroke="black" stroke-dasharray="5,2" d="M686,-217.89C686,-215.79 686,-183.14 686,-181.1"/>
</g>
<!-- c3 -->
<g id="node19" class="node">
<title>c3</title>
</g>
<!-- c2&#45;&gt;c3 -->
<g id="edge15" class="edge">
<title>c2&#45;&gt;c3</title>
<path fill="none" stroke="black" stroke-width="5" d="M686,-179.85C686,-176.96 686,-131.95 686,-129.14"/>
<text text-anchor="middle" x="758.5" y="-150.8" font-family="Times,serif" font-size="14.00">switches to profile 1</text>
</g>
<!-- c3&#45;&gt;c4 -->
<g id="edge16" class="edge">
<title>c3&#45;&gt;c4</title>
<path fill="none" stroke="black" stroke-dasharray="5,2" d="M686,-127.89C686,-125.79 686,-93.14 686,-91.1"/>
</g>
<!-- c5 -->
<g id="node21" class="node">
<title>c5</title>
</g>
<!-- c4&#45;&gt;c5 -->
<g id="edge17" class="edge">
<title>c4&#45;&gt;c5</title>
<path fill="none" stroke="black" stroke-dasharray="5,2" d="M686,-89.85C686,-86.96 686,-41.95 686,-39.14"/>
</g>
<!-- d4 -->
<g id="node26" class="node">
<title>d4</title>
</g>
<!-- c4&#45;&gt;d4 -->
<g id="edge28" class="edge">
<title>c4&#45;&gt;d4</title>
<path fill="none" stroke="black" d="M686.84,-90.5C701.96,-90.5 916.63,-90.5 968.01,-90.5"/>
<polygon fill="black" stroke="black" points="968.21,-94 978.21,-90.5 968.21,-87 968.21,-94"/>
<text text-anchor="middle" x="832.5" y="-127.3" font-family="Times,serif" font-size="14.00">relay message to HDMI switch</text>
<text text-anchor="middle" x="832.5" y="-112.3" font-family="Times,serif" font-size="14.00">through IR on second cable</text>
<text text-anchor="middle" x="832.5" y="-97.3" font-family="Times,serif" font-size="14.00">Ex: 0xB649 0xF40B</text>
</g>
<!-- c6 -->
<g id="node22" class="node">
<title>c6</title>
</g>
<!-- c5&#45;&gt;c6 -->
<g id="edge18" class="edge">
<title>c5&#45;&gt;c6</title>
<path fill="none" stroke="black" stroke-dasharray="5,2" d="M686,-37.89C686,-35.79 686,-3.14 686,-1.1"/>
</g>
<!-- d2 -->
<g id="node24" class="node">
<title>d2</title>
</g>
<!-- d1&#45;&gt;d2 -->
<g id="edge20" class="edge">
<title>d1&#45;&gt;d2</title>
<path fill="none" stroke="black" stroke-dasharray="5,2" d="M979,-217.89C979,-215.79 979,-183.14 979,-181.1"/>
</g>
<!-- d3 -->
<g id="node25" class="node">
<title>d3</title>
</g>
<!-- d2&#45;&gt;d3 -->
<g id="edge21" class="edge">
<title>d2&#45;&gt;d3</title>
<path fill="none" stroke="black" stroke-dasharray="5,2" d="M979,-179.85C979,-176.96 979,-131.95 979,-129.14"/>
</g>
<!-- d3&#45;&gt;d4 -->
<g id="edge22" class="edge">
<title>d3&#45;&gt;d4</title>
<path fill="none" stroke="black" stroke-dasharray="5,2" d="M979,-127.89C979,-125.79 979,-93.14 979,-91.1"/>
</g>
<!-- d5 -->
<g id="node27" class="node">
<title>d5</title>
</g>
<!-- d4&#45;&gt;d5 -->
<g id="edge23" class="edge">
<title>d4&#45;&gt;d5</title>
<path fill="none" stroke="black" stroke-width="5" d="M979,-89.85C979,-86.96 979,-41.95 979,-39.14"/>
<text text-anchor="middle" x="1058.5" y="-60.8" font-family="Times,serif" font-size="14.00">ignores this command</text>
</g>
<!-- d6 -->
<g id="node28" class="node">
<title>d6</title>
</g>
<!-- d5&#45;&gt;d6 -->
<g id="edge24" class="edge">
<title>d5&#45;&gt;d6</title>
<path fill="none" stroke="black" stroke-dasharray="5,2" d="M979,-37.89C979,-35.79 979,-3.14 979,-1.1"/>
</g>
</g>
</svg>
