<?xml version="1.0" encoding="UTF-8" standalone="no"?>
<!DOCTYPE svg PUBLIC "-//W3C//DTD SVG 1.1//EN"
 "http://www.w3.org/Graphics/SVG/1.1/DTD/svg11.dtd">
<!-- Generated by graphviz version 2.43.0 (0)
 -->
<!-- Title: SEQ_DIAGRAM Pages: 1 -->
<svg width="1057pt" height="248pt"
 viewBox="0.00 0.00 1057.00 248.00" xmlns="http://www.w3.org/2000/svg" xmlns:xlink="http://www.w3.org/1999/xlink">
<g id="graph0" class="graph" transform="scale(1 1) rotate(0) translate(4 244)">
<title>SEQ_DIAGRAM</title>
<polygon fill="white" stroke="transparent" points="-4,4 -4,-244 1053,-244 1053,4 -4,4"/>
<!-- mqtt -->
<g id="node1" class="node">
<title>mqtt</title>
<polygon fill="none" stroke="black" points="242,-240 0,-240 0,-190 242,-190 242,-240"/>
<text text-anchor="middle" x="121" y="-211.3" font-family="Times,serif" font-size="14.00">MQTT Broker (Home Assistant)</text>
</g>
<!-- a1 -->
<g id="node5" class="node">
<title>a1</title>
</g>
<!-- mqtt&#45;&gt;a1 -->
<g id="edge1" class="edge">
<title>mqtt&#45;&gt;a1</title>
<path fill="none" stroke="black" stroke-dasharray="5,2" d="M121,-189.89C121,-173.37 121,-154.24 121,-153.06"/>
</g>
<!-- mqtt2nec -->
<g id="node2" class="node">
<title>mqtt2nec</title>
<polygon fill="none" stroke="black" points="572,-240 384,-240 384,-190 572,-190 572,-240"/>
<text text-anchor="middle" x="478" y="-211.3" font-family="Times,serif" font-size="14.00">mqtt2nec (raspberry pi)</text>
</g>
<!-- b1 -->
<g id="node9" class="node">
<title>b1</title>
</g>
<!-- mqtt2nec&#45;&gt;b1 -->
<g id="edge5" class="edge">
<title>mqtt2nec&#45;&gt;b1</title>
<path fill="none" stroke="black" stroke-dasharray="5,2" d="M478,-189.89C478,-173.37 478,-154.24 478,-153.06"/>
</g>
<!-- arduino -->
<g id="node3" class="node">
<title>arduino</title>
<polygon fill="none" stroke="black" points="817.5,-240 644.5,-240 644.5,-190 817.5,-190 817.5,-240"/>
<text text-anchor="middle" x="731" y="-211.3" font-family="Times,serif" font-size="14.00">infrared&#45;nec (arduino)</text>
</g>
<!-- c1 -->
<g id="node14" class="node">
<title>c1</title>
</g>
<!-- arduino&#45;&gt;c1 -->
<g id="edge10" class="edge">
<title>arduino&#45;&gt;c1</title>
<path fill="none" stroke="black" stroke-dasharray="5,2" d="M731,-189.89C731,-173.37 731,-154.24 731,-153.06"/>
</g>
<!-- device -->
<g id="node4" class="node">
<title>device</title>
<polygon fill="none" stroke="black" points="1049,-240 905,-240 905,-190 1049,-190 1049,-240"/>
<text text-anchor="middle" x="977" y="-211.3" font-family="Times,serif" font-size="14.00">device</text>
</g>
<!-- d1 -->
<g id="node19" class="node">
<title>d1</title>
</g>
<!-- device&#45;&gt;d1 -->
<g id="edge15" class="edge">
<title>device&#45;&gt;d1</title>
<path fill="none" stroke="black" stroke-dasharray="5,2" d="M977,-189.89C977,-173.37 977,-154.24 977,-153.06"/>
</g>
<!-- a2 -->
<g id="node6" class="node">
<title>a2</title>
</g>
<!-- a1&#45;&gt;a2 -->
<g id="edge2" class="edge">
<title>a1&#45;&gt;a2</title>
<path fill="none" stroke="black" stroke-dasharray="5,2" d="M121,-151.89C121,-149.79 121,-117.14 121,-115.1"/>
</g>
<!-- a1&#45;&gt;b1 -->
<g id="edge20" class="edge">
<title>a1&#45;&gt;b1</title>
<path fill="none" stroke="black" d="M121.58,-152.5C135.86,-152.5 409.8,-152.5 467.42,-152.5"/>
<polygon fill="black" stroke="black" points="467.45,-156 477.45,-152.5 467.45,-149 467.45,-156"/>
<text text-anchor="middle" x="299.5" y="-174.3" font-family="Times,serif" font-size="14.00">publish to topic &quot;nec/tx&quot;</text>
<text text-anchor="middle" x="299.5" y="-159.3" font-family="Times,serif" font-size="14.00">Ex: {&quot;codes&quot;: [&quot;TINK4K&quot;, &quot;TINK4K_1&quot;]}</text>
</g>
<!-- a3 -->
<g id="node7" class="node">
<title>a3</title>
</g>
<!-- a2&#45;&gt;a3 -->
<g id="edge3" class="edge">
<title>a2&#45;&gt;a3</title>
<path fill="none" stroke="black" stroke-dasharray="5,2" d="M121,-113.89C121,-111.79 121,-79.14 121,-77.1"/>
</g>
<!-- a5 -->
<g id="node8" class="node">
<title>a5</title>
</g>
<!-- a3&#45;&gt;a5 -->
<g id="edge4" class="edge">
<title>a3&#45;&gt;a5</title>
<path fill="none" stroke="black" stroke-dasharray="5,2" d="M121,-75.89C121,-73.79 121,-41.14 121,-39.1"/>
</g>
<!-- b2 -->
<g id="node10" class="node">
<title>b2</title>
</g>
<!-- b1&#45;&gt;b2 -->
<g id="edge6" class="edge">
<title>b1&#45;&gt;b2</title>
<path fill="none" stroke="black" stroke-width="5" d="M478,-151.89C478,-149.79 478,-117.14 478,-115.1"/>
</g>
<!-- b3 -->
<g id="node11" class="node">
<title>b3</title>
</g>
<!-- b2&#45;&gt;b3 -->
<g id="edge7" class="edge">
<title>b2&#45;&gt;b3</title>
<path fill="none" stroke="black" stroke-dasharray="5,2" d="M478,-113.89C478,-111.79 478,-79.14 478,-77.1"/>
</g>
<!-- c2 -->
<g id="node15" class="node">
<title>c2</title>
</g>
<!-- b2&#45;&gt;c2 -->
<g id="edge21" class="edge">
<title>b2&#45;&gt;c2</title>
<path fill="none" stroke="black" d="M478.73,-114.5C491.64,-114.5 673.18,-114.5 720.03,-114.5"/>
<polygon fill="black" stroke="black" points="720.32,-118 730.32,-114.5 720.32,-111 720.32,-118"/>
<text text-anchor="middle" x="604.5" y="-136.3" font-family="Times,serif" font-size="14.00">write to serial port</text>
<text text-anchor="middle" x="604.5" y="-121.3" font-family="Times,serif" font-size="14.00">Ex: &quot;73;11&quot;</text>
</g>
<!-- b4 -->
<g id="node12" class="node">
<title>b4</title>
</g>
<!-- b3&#45;&gt;b4 -->
<g id="edge8" class="edge">
<title>b3&#45;&gt;b4</title>
<path fill="none" stroke="black" stroke-dasharray="5,2" d="M478,-75.89C478,-73.79 478,-41.14 478,-39.1"/>
</g>
<!-- b5 -->
<g id="node13" class="node">
<title>b5</title>
</g>
<!-- b4&#45;&gt;b5 -->
<g id="edge9" class="edge">
<title>b4&#45;&gt;b5</title>
<path fill="none" stroke="black" stroke-dasharray="5,2" d="M478,-37.89C478,-35.79 478,-3.14 478,-1.1"/>
</g>
<!-- c1&#45;&gt;c2 -->
<g id="edge11" class="edge">
<title>c1&#45;&gt;c2</title>
<path fill="none" stroke="black" stroke-dasharray="5,2" d="M731,-151.89C731,-149.79 731,-117.14 731,-115.1"/>
</g>
<!-- c3 -->
<g id="node16" class="node">
<title>c3</title>
</g>
<!-- c2&#45;&gt;c3 -->
<g id="edge12" class="edge">
<title>c2&#45;&gt;c3</title>
<path fill="none" stroke="black" stroke-width="5" d="M731,-113.89C731,-111.79 731,-79.14 731,-77.1"/>
</g>
<!-- c4 -->
<g id="node17" class="node">
<title>c4</title>
</g>
<!-- c3&#45;&gt;c4 -->
<g id="edge13" class="edge">
<title>c3&#45;&gt;c4</title>
<path fill="none" stroke="black" stroke-dasharray="5,2" d="M731,-75.89C731,-73.79 731,-41.14 731,-39.1"/>
</g>
<!-- d3 -->
<g id="node21" class="node">
<title>d3</title>
</g>
<!-- c3&#45;&gt;d3 -->
<g id="edge22" class="edge">
<title>c3&#45;&gt;d3</title>
<path fill="none" stroke="black" d="M731.71,-76.5C744.26,-76.5 920.78,-76.5 966.33,-76.5"/>
<polygon fill="black" stroke="black" points="966.34,-80 976.34,-76.5 966.34,-73 966.34,-80"/>
<text text-anchor="middle" x="854" y="-98.3" font-family="Times,serif" font-size="14.00">send infrared nec signal</text>
<text text-anchor="middle" x="854" y="-83.3" font-family="Times,serif" font-size="14.00"> Ex: pew pew pew</text>
</g>
<!-- c5 -->
<g id="node18" class="node">
<title>c5</title>
</g>
<!-- c4&#45;&gt;c5 -->
<g id="edge14" class="edge">
<title>c4&#45;&gt;c5</title>
<path fill="none" stroke="black" stroke-dasharray="5,2" d="M731,-37.89C731,-35.79 731,-3.14 731,-1.1"/>
</g>
<!-- d2 -->
<g id="node20" class="node">
<title>d2</title>
</g>
<!-- d1&#45;&gt;d2 -->
<g id="edge16" class="edge">
<title>d1&#45;&gt;d2</title>
<path fill="none" stroke="black" stroke-dasharray="5,2" d="M977,-151.89C977,-149.79 977,-117.14 977,-115.1"/>
</g>
<!-- d2&#45;&gt;d3 -->
<g id="edge17" class="edge">
<title>d2&#45;&gt;d3</title>
<path fill="none" stroke="black" stroke-dasharray="5,2" d="M977,-113.89C977,-111.79 977,-79.14 977,-77.1"/>
</g>
<!-- d4 -->
<g id="node22" class="node">
<title>d4</title>
</g>
<!-- d3&#45;&gt;d4 -->
<g id="edge18" class="edge">
<title>d3&#45;&gt;d4</title>
<path fill="none" stroke="black" stroke-width="5" d="M977,-75.89C977,-73.79 977,-41.14 977,-39.1"/>
</g>
<!-- d5 -->
<g id="node23" class="node">
<title>d5</title>
</g>
<!-- d4&#45;&gt;d5 -->
<g id="edge19" class="edge">
<title>d4&#45;&gt;d5</title>
<path fill="none" stroke="black" stroke-dasharray="5,2" d="M977,-37.89C977,-35.79 977,-3.14 977,-1.1"/>
</g>
</g>
</svg>
