<?xml version="1.0" encoding="UTF-8" standalone="no"?>
<!DOCTYPE svg PUBLIC "-//W3C//DTD SVG 1.1//EN"
 "http://www.w3.org/Graphics/SVG/1.1/DTD/svg11.dtd">
<!-- Generated by graphviz version 2.43.0 (0)
 -->
<!-- Title: SEQ_DIAGRAM Pages: 1 -->
<svg width="823pt" height="248pt"
 viewBox="0.00 0.00 823.00 248.00" xmlns="http://www.w3.org/2000/svg" xmlns:xlink="http://www.w3.org/1999/xlink">
<g id="graph0" class="graph" transform="scale(1 1) rotate(0) translate(4 244)">
<title>SEQ_DIAGRAM</title>
<polygon fill="white" stroke="transparent" points="-4,4 -4,-244 819,-244 819,4 -4,4"/>
<!-- homeassistant -->
<g id="node1" class="node">
<title>homeassistant</title>
<polygon fill="none" stroke="black" points="144,-240 0,-240 0,-190 144,-190 144,-240"/>
<text text-anchor="middle" x="72" y="-211.3" font-family="Times,serif" font-size="14.00">Home Assistant</text>
</g>
<!-- a1 -->
<g id="node4" class="node">
<title>a1</title>
</g>
<!-- homeassistant&#45;&gt;a1 -->
<g id="edge1" class="edge">
<title>homeassistant&#45;&gt;a1</title>
<path fill="none" stroke="black" stroke-dasharray="5,2" d="M72,-189.89C72,-173.37 72,-154.24 72,-153.06"/>
</g>
<!-- cec -->
<g id="node2" class="node">
<title>cec</title>
<polygon fill="none" stroke="black" points="468,-240 280,-240 280,-190 468,-190 468,-240"/>
<text text-anchor="middle" x="374" y="-211.3" font-family="Times,serif" font-size="14.00">cec proxy (raspberry pi)</text>
</g>
<!-- b1 -->
<g id="node8" class="node">
<title>b1</title>
</g>
<!-- cec&#45;&gt;b1 -->
<g id="edge5" class="edge">
<title>cec&#45;&gt;b1</title>
<path fill="none" stroke="black" stroke-dasharray="5,2" d="M374,-189.89C374,-173.37 374,-154.24 374,-153.06"/>
</g>
<!-- tv -->
<g id="node3" class="node">
<title>tv</title>
<polygon fill="none" stroke="black" points="815,-240 671,-240 671,-190 815,-190 815,-240"/>
<text text-anchor="middle" x="743" y="-211.3" font-family="Times,serif" font-size="14.00">TV</text>
</g>
<!-- c1 -->
<g id="node13" class="node">
<title>c1</title>
</g>
<!-- tv&#45;&gt;c1 -->
<g id="edge10" class="edge">
<title>tv&#45;&gt;c1</title>
<path fill="none" stroke="black" stroke-dasharray="5,2" d="M743,-189.89C743,-173.37 743,-154.24 743,-153.06"/>
</g>
<!-- a2 -->
<g id="node5" class="node">
<title>a2</title>
</g>
<!-- a1&#45;&gt;a2 -->
<g id="edge2" class="edge">
<title>a1&#45;&gt;a2</title>
<path fill="none" stroke="black" stroke-dasharray="5,2" d="M72,-151.89C72,-149.79 72,-117.14 72,-115.1"/>
</g>
<!-- a1&#45;&gt;b1 -->
<g id="edge15" class="edge">
<title>a1&#45;&gt;b1</title>
<path fill="none" stroke="black" d="M72.87,-152.5C88.48,-152.5 310.67,-152.5 363.01,-152.5"/>
<polygon fill="black" stroke="black" points="363.19,-156 373.19,-152.5 363.19,-149 363.19,-156"/>
<text text-anchor="middle" x="223" y="-174.3" font-family="Times,serif" font-size="14.00">send message via WIFI to proxy</text>
<text text-anchor="middle" x="223" y="-159.3" font-family="Times,serif" font-size="14.00">Ex: 1f:82:10:00</text>
</g>
<!-- a3 -->
<g id="node6" class="node">
<title>a3</title>
</g>
<!-- a2&#45;&gt;a3 -->
<g id="edge3" class="edge">
<title>a2&#45;&gt;a3</title>
<path fill="none" stroke="black" stroke-dasharray="5,2" d="M72,-113.89C72,-111.79 72,-79.14 72,-77.1"/>
</g>
<!-- a5 -->
<g id="node7" class="node">
<title>a5</title>
</g>
<!-- a3&#45;&gt;a5 -->
<g id="edge4" class="edge">
<title>a3&#45;&gt;a5</title>
<path fill="none" stroke="black" stroke-dasharray="5,2" d="M72,-75.89C72,-73.79 72,-41.14 72,-39.1"/>
</g>
<!-- b2 -->
<g id="node9" class="node">
<title>b2</title>
</g>
<!-- b1&#45;&gt;b2 -->
<g id="edge6" class="edge">
<title>b1&#45;&gt;b2</title>
<path fill="none" stroke="black" stroke-width="5" d="M374,-151.89C374,-149.79 374,-117.14 374,-115.1"/>
</g>
<!-- b3 -->
<g id="node10" class="node">
<title>b3</title>
</g>
<!-- b2&#45;&gt;b3 -->
<g id="edge7" class="edge">
<title>b2&#45;&gt;b3</title>
<path fill="none" stroke="black" stroke-dasharray="5,2" d="M374,-113.89C374,-111.79 374,-79.14 374,-77.1"/>
</g>
<!-- c2 -->
<g id="node14" class="node">
<title>c2</title>
</g>
<!-- b2&#45;&gt;c2 -->
<g id="edge16" class="edge">
<title>b2&#45;&gt;c2</title>
<path fill="none" stroke="black" d="M374.6,-114.5C389.35,-114.5 672.51,-114.5 732.07,-114.5"/>
<polygon fill="black" stroke="black" points="732.43,-118 742.43,-114.5 732.43,-111 732.43,-118"/>
<text text-anchor="middle" x="558.5" y="-136.3" font-family="Times,serif" font-size="14.00">relay message to TV through HDMI cable</text>
<text text-anchor="middle" x="558.5" y="-121.3" font-family="Times,serif" font-size="14.00">Ex: 1f:82:10:00</text>
</g>
<!-- b4 -->
<g id="node11" class="node">
<title>b4</title>
</g>
<!-- b3&#45;&gt;b4 -->
<g id="edge8" class="edge">
<title>b3&#45;&gt;b4</title>
<path fill="none" stroke="black" stroke-dasharray="5,2" d="M374,-75.89C374,-73.79 374,-41.14 374,-39.1"/>
</g>
<!-- b5 -->
<g id="node12" class="node">
<title>b5</title>
</g>
<!-- b4&#45;&gt;b5 -->
<g id="edge9" class="edge">
<title>b4&#45;&gt;b5</title>
<path fill="none" stroke="black" stroke-dasharray="5,2" d="M374,-37.89C374,-35.79 374,-3.14 374,-1.1"/>
</g>
<!-- c1&#45;&gt;c2 -->
<g id="edge11" class="edge">
<title>c1&#45;&gt;c2</title>
<path fill="none" stroke="black" stroke-dasharray="5,2" d="M743,-151.89C743,-149.79 743,-117.14 743,-115.1"/>
</g>
<!-- c3 -->
<g id="node15" class="node">
<title>c3</title>
</g>
<!-- c2&#45;&gt;c3 -->
<g id="edge12" class="edge">
<title>c2&#45;&gt;c3</title>
<path fill="none" stroke="black" stroke-width="5" d="M743,-113.89C743,-111.79 743,-79.14 743,-77.1"/>
</g>
<!-- c4 -->
<g id="node16" class="node">
<title>c4</title>
</g>
<!-- c3&#45;&gt;c4 -->
<g id="edge13" class="edge">
<title>c3&#45;&gt;c4</title>
<path fill="none" stroke="black" stroke-dasharray="5,2" d="M743,-75.89C743,-73.79 743,-41.14 743,-39.1"/>
</g>
<!-- c5 -->
<g id="node17" class="node">
<title>c5</title>
</g>
<!-- c4&#45;&gt;c5 -->
<g id="edge14" class="edge">
<title>c4&#45;&gt;c5</title>
<path fill="none" stroke="black" stroke-dasharray="5,2" d="M743,-37.89C743,-35.79 743,-3.14 743,-1.1"/>
</g>
</g>
</svg>
