<?xml version="1.0" encoding="UTF-8" standalone="no"?>
<!DOCTYPE svg PUBLIC "-//W3C//DTD SVG 1.1//EN"
 "http://www.w3.org/Graphics/SVG/1.1/DTD/svg11.dtd">
<!-- Generated by graphviz version 2.43.0 (0)
 -->
<!-- Title: SEQ_DIAGRAM Pages: 1 -->
<svg width="671pt" height="352pt"
 viewBox="0.00 0.00 671.00 352.00" xmlns="http://www.w3.org/2000/svg" xmlns:xlink="http://www.w3.org/1999/xlink">
<g id="graph0" class="graph" transform="scale(1 1) rotate(0) translate(4 348)">
<title>SEQ_DIAGRAM</title>
<polygon fill="white" stroke="transparent" points="-4,4 -4,-348 667,-348 667,4 -4,4"/>
<!-- mobile_website -->
<g id="node1" class="node">
<title>mobile_website</title>
<polygon fill="none" stroke="black" points="144,-344 0,-344 0,-294 144,-294 144,-344"/>
<text text-anchor="middle" x="72" y="-322.8" font-family="Times,serif" font-size="14.00">Mobile website</text>
<text text-anchor="middle" x="72" y="-307.8" font-family="Times,serif" font-size="14.00">(sni&#45;web)</text>
</g>
<!-- a1 -->
<g id="node4" class="node">
<title>a1</title>
</g>
<!-- mobile_website&#45;&gt;a1 -->
<g id="edge1" class="edge">
<title>mobile_website&#45;&gt;a1</title>
<path fill="none" stroke="black" stroke-dasharray="5,2" d="M72,-293.89C72,-277.37 72,-258.24 72,-257.06"/>
</g>
<!-- api -->
<g id="node2" class="node">
<title>api</title>
<polygon fill="none" stroke="black" points="391,-344 247,-344 247,-294 391,-294 391,-344"/>
<text text-anchor="middle" x="319" y="-322.8" font-family="Times,serif" font-size="14.00">API</text>
<text text-anchor="middle" x="319" y="-307.8" font-family="Times,serif" font-size="14.00">(pyz3r&#45;api)</text>
</g>
<!-- b1 -->
<g id="node11" class="node">
<title>b1</title>
</g>
<!-- api&#45;&gt;b1 -->
<g id="edge8" class="edge">
<title>api&#45;&gt;b1</title>
<path fill="none" stroke="black" stroke-dasharray="5,2" d="M319,-293.89C319,-277.37 319,-258.24 319,-257.06"/>
</g>
<!-- sni -->
<g id="node3" class="node">
<title>sni</title>
<polygon fill="none" stroke="black" points="607,-344 463,-344 463,-294 607,-294 607,-344"/>
<text text-anchor="middle" x="535" y="-315.3" font-family="Times,serif" font-size="14.00">SNI</text>
</g>
<!-- c1 -->
<g id="node18" class="node">
<title>c1</title>
</g>
<!-- sni&#45;&gt;c1 -->
<g id="edge15" class="edge">
<title>sni&#45;&gt;c1</title>
<path fill="none" stroke="black" stroke-dasharray="5,2" d="M535,-293.89C535,-277.37 535,-258.24 535,-257.06"/>
</g>
<!-- a2 -->
<g id="node5" class="node">
<title>a2</title>
</g>
<!-- a1&#45;&gt;a2 -->
<g id="edge2" class="edge">
<title>a1&#45;&gt;a2</title>
<path fill="none" stroke="black" stroke-dasharray="5,2" d="M72,-255.89C72,-253.79 72,-221.14 72,-219.1"/>
</g>
<!-- a1&#45;&gt;b1 -->
<g id="edge22" class="edge">
<title>a1&#45;&gt;b1</title>
<path fill="none" stroke="black" d="M72.71,-256.5C85.32,-256.5 262.55,-256.5 308.29,-256.5"/>
<polygon fill="black" stroke="black" points="308.33,-260 318.33,-256.5 308.33,-253 308.33,-260"/>
<text text-anchor="middle" x="195.5" y="-263.3" font-family="Times,serif" font-size="14.00">send build configuration</text>
</g>
<!-- a3 -->
<g id="node6" class="node">
<title>a3</title>
</g>
<!-- a2&#45;&gt;a3 -->
<g id="edge3" class="edge">
<title>a2&#45;&gt;a3</title>
<path fill="none" stroke="black" stroke-width="5" d="M72,-217.89C72,-215.79 72,-183.14 72,-181.1"/>
</g>
<!-- b2 -->
<g id="node12" class="node">
<title>b2</title>
</g>
<!-- a2&#45;&gt;b2 -->
<g id="edge23" class="edge">
<title>a2&#45;&gt;b2</title>
<path fill="none" stroke="black" d="M82.87,-218.5C128.91,-218.5 306.11,-218.5 318.33,-218.5"/>
<polygon fill="black" stroke="black" points="82.71,-215 72.71,-218.5 82.71,-222 82.71,-215"/>
<text text-anchor="middle" x="195.5" y="-225.3" font-family="Times,serif" font-size="14.00">return patched ROM</text>
</g>
<!-- a4 -->
<g id="node7" class="node">
<title>a4</title>
</g>
<!-- a3&#45;&gt;a4 -->
<g id="edge4" class="edge">
<title>a3&#45;&gt;a4</title>
<path fill="none" stroke="black" stroke-dasharray="5,2" d="M72,-179.85C72,-176.96 72,-131.95 72,-129.14"/>
</g>
<!-- b3 -->
<g id="node13" class="node">
<title>b3</title>
</g>
<!-- a3&#45;&gt;b3 -->
<g id="edge24" class="edge">
<title>a3&#45;&gt;b3</title>
<path fill="none" stroke="black" d="M72.71,-180.5C86.74,-180.5 304.72,-180.5 318.33,-180.5"/>
<text text-anchor="middle" x="195.5" y="-187.3" font-family="Times,serif" font-size="14.00">upload ROM</text>
</g>
<!-- a5 -->
<g id="node8" class="node">
<title>a5</title>
</g>
<!-- a4&#45;&gt;a5 -->
<g id="edge5" class="edge">
<title>a4&#45;&gt;a5</title>
<path fill="none" stroke="black" stroke-width="5" d="M72,-127.89C72,-125.79 72,-93.14 72,-91.1"/>
</g>
<!-- b4 -->
<g id="node14" class="node">
<title>b4</title>
</g>
<!-- a4&#45;&gt;b4 -->
<g id="edge26" class="edge">
<title>a4&#45;&gt;b4</title>
<path fill="none" stroke="black" d="M82.87,-128.5C128.91,-128.5 306.11,-128.5 318.33,-128.5"/>
<polygon fill="black" stroke="black" points="82.71,-125 72.71,-128.5 82.71,-132 82.71,-125"/>
<text text-anchor="middle" x="195.5" y="-135.3" font-family="Times,serif" font-size="14.00">return result</text>
</g>
<!-- a6 -->
<g id="node9" class="node">
<title>a6</title>
</g>
<!-- a5&#45;&gt;a6 -->
<g id="edge6" class="edge">
<title>a5&#45;&gt;a6</title>
<path fill="none" stroke="black" stroke-dasharray="5,2" d="M72,-89.85C72,-86.96 72,-41.95 72,-39.14"/>
</g>
<!-- b5 -->
<g id="node15" class="node">
<title>b5</title>
</g>
<!-- a5&#45;&gt;b5 -->
<g id="edge28" class="edge">
<title>a5&#45;&gt;b5</title>
<path fill="none" stroke="black" d="M72.71,-90.5C86.74,-90.5 304.72,-90.5 318.33,-90.5"/>
<text text-anchor="middle" x="195.5" y="-97.3" font-family="Times,serif" font-size="14.00">request to boot ROM</text>
</g>
<!-- a7 -->
<g id="node10" class="node">
<title>a7</title>
</g>
<!-- a6&#45;&gt;a7 -->
<g id="edge7" class="edge">
<title>a6&#45;&gt;a7</title>
<path fill="none" stroke="black" stroke-dasharray="5,2" d="M72,-37.89C72,-35.79 72,-3.14 72,-1.1"/>
</g>
<!-- b1&#45;&gt;b2 -->
<g id="edge9" class="edge">
<title>b1&#45;&gt;b2</title>
<path fill="none" stroke="black" stroke-width="5" d="M319,-255.89C319,-253.79 319,-221.14 319,-219.1"/>
</g>
<!-- b2&#45;&gt;b3 -->
<g id="edge10" class="edge">
<title>b2&#45;&gt;b3</title>
<path fill="none" stroke="black" stroke-dasharray="5,2" d="M319,-217.89C319,-215.79 319,-183.14 319,-181.1"/>
</g>
<!-- b3&#45;&gt;b4 -->
<g id="edge11" class="edge">
<title>b3&#45;&gt;b4</title>
<path fill="none" stroke="black" stroke-dasharray="5,2" d="M319,-179.85C319,-176.96 319,-131.95 319,-129.14"/>
</g>
<!-- c3 -->
<g id="node20" class="node">
<title>c3</title>
</g>
<!-- b3&#45;&gt;c3 -->
<g id="edge25" class="edge">
<title>b3&#45;&gt;c3</title>
<path fill="none" stroke="black" d="M319.84,-180.5C387.93,-180.5 456.02,-180.5 524.11,-180.5"/>
<polygon fill="black" stroke="black" points="524.16,-184 534.16,-180.5 524.16,-177 524.16,-184"/>
</g>
<!-- b4&#45;&gt;b5 -->
<g id="edge12" class="edge">
<title>b4&#45;&gt;b5</title>
<path fill="none" stroke="black" stroke-dasharray="5,2" d="M319,-127.89C319,-125.79 319,-93.14 319,-91.1"/>
</g>
<!-- c4 -->
<g id="node21" class="node">
<title>c4</title>
</g>
<!-- b4&#45;&gt;c4 -->
<g id="edge27" class="edge">
<title>b4&#45;&gt;c4</title>
<path fill="none" stroke="black" d="M319.84,-128.5C391.28,-128.5 462.72,-128.5 534.16,-128.5"/>
</g>
<!-- b6 -->
<g id="node16" class="node">
<title>b6</title>
</g>
<!-- b5&#45;&gt;b6 -->
<g id="edge13" class="edge">
<title>b5&#45;&gt;b6</title>
<path fill="none" stroke="black" stroke-dasharray="5,2" d="M319,-89.85C319,-86.96 319,-41.95 319,-39.14"/>
</g>
<!-- c5 -->
<g id="node22" class="node">
<title>c5</title>
</g>
<!-- b5&#45;&gt;c5 -->
<g id="edge29" class="edge">
<title>b5&#45;&gt;c5</title>
<path fill="none" stroke="black" d="M319.84,-90.5C387.93,-90.5 456.02,-90.5 524.11,-90.5"/>
<polygon fill="black" stroke="black" points="524.16,-94 534.16,-90.5 524.16,-87 524.16,-94"/>
</g>
<!-- b7 -->
<g id="node17" class="node">
<title>b7</title>
</g>
<!-- b6&#45;&gt;b7 -->
<g id="edge14" class="edge">
<title>b6&#45;&gt;b7</title>
<path fill="none" stroke="black" stroke-dasharray="5,2" d="M319,-37.89C319,-35.79 319,-3.14 319,-1.1"/>
</g>
<!-- c2 -->
<g id="node19" class="node">
<title>c2</title>
</g>
<!-- c1&#45;&gt;c2 -->
<g id="edge16" class="edge">
<title>c1&#45;&gt;c2</title>
<path fill="none" stroke="black" stroke-dasharray="5,2" d="M535,-255.89C535,-253.79 535,-221.14 535,-219.1"/>
</g>
<!-- c2&#45;&gt;c3 -->
<g id="edge17" class="edge">
<title>c2&#45;&gt;c3</title>
<path fill="none" stroke="black" stroke-dasharray="5,2" d="M535,-217.89C535,-215.79 535,-183.14 535,-181.1"/>
</g>
<!-- c3&#45;&gt;c4 -->
<g id="edge18" class="edge">
<title>c3&#45;&gt;c4</title>
<path fill="none" stroke="black" stroke-width="5" d="M535,-179.85C535,-176.96 535,-131.95 535,-129.14"/>
<text text-anchor="middle" x="599" y="-150.8" font-family="Times,serif" font-size="14.00">write to flash cart</text>
</g>
<!-- c4&#45;&gt;c5 -->
<g id="edge19" class="edge">
<title>c4&#45;&gt;c5</title>
<path fill="none" stroke="black" stroke-dasharray="5,2" d="M535,-127.89C535,-125.79 535,-93.14 535,-91.1"/>
</g>
<!-- c6 -->
<g id="node23" class="node">
<title>c6</title>
</g>
<!-- c5&#45;&gt;c6 -->
<g id="edge20" class="edge">
<title>c5&#45;&gt;c6</title>
<path fill="none" stroke="black" stroke-width="5" d="M535,-89.85C535,-86.96 535,-41.95 535,-39.14"/>
<text text-anchor="middle" x="571.5" y="-60.8" font-family="Times,serif" font-size="14.00">boot ROM</text>
</g>
<!-- c7 -->
<g id="node24" class="node">
<title>c7</title>
</g>
<!-- c6&#45;&gt;c7 -->
<g id="edge21" class="edge">
<title>c6&#45;&gt;c7</title>
<path fill="none" stroke="black" stroke-dasharray="5,2" d="M535,-37.89C535,-35.79 535,-3.14 535,-1.1"/>
</g>
</g>
</svg>
